<mxfile host="app.diagrams.net" modified="2024-05-29T15:49:01.267Z" agent="Mozilla/5.0 (Windows NT 10.0; Win64; x64) AppleWebKit/537.36 (KHTML, like Gecko) Chrome/125.0.0.0 Safari/537.36" etag="QhVOzzaWcNhsCAVrm-_O" version="24.4.9" type="device">
  <diagram name="Trang-1" id="LcqlN0Lvte6c4zF93W6T">
    <mxGraphModel dx="2812" dy="1030" grid="1" gridSize="10" guides="1" tooltips="1" connect="1" arrows="1" fold="1" page="1" pageScale="1" pageWidth="827" pageHeight="1169" math="0" shadow="0">
      <root>
        <mxCell id="0" />
        <mxCell id="1" parent="0" />
        <mxCell id="Vfjefu0ZY86SunLi3x9Y-1" value="Quản lý điểm sinh viên" style="rounded=0;whiteSpace=wrap;html=1;fontSize=17;" vertex="1" parent="1">
          <mxGeometry x="350" y="137" width="210" height="60" as="geometry" />
        </mxCell>
        <mxCell id="Vfjefu0ZY86SunLi3x9Y-2" value="Xác thực và phân quyền" style="rounded=0;whiteSpace=wrap;html=1;fontSize=17;" vertex="1" parent="1">
          <mxGeometry x="-680" y="280" width="160" height="60" as="geometry" />
        </mxCell>
        <mxCell id="Vfjefu0ZY86SunLi3x9Y-4" value="Đăng nhập" style="rounded=0;whiteSpace=wrap;html=1;fontSize=17;" vertex="1" parent="1">
          <mxGeometry x="-640" y="400" width="160" height="60" as="geometry" />
        </mxCell>
        <mxCell id="Vfjefu0ZY86SunLi3x9Y-5" value="Phân quyền" style="rounded=0;whiteSpace=wrap;html=1;fontSize=17;" vertex="1" parent="1">
          <mxGeometry x="-640" y="520" width="160" height="60" as="geometry" />
        </mxCell>
        <mxCell id="Vfjefu0ZY86SunLi3x9Y-6" value="Quản lý sinh viên" style="rounded=0;whiteSpace=wrap;html=1;fontSize=17;" vertex="1" parent="1">
          <mxGeometry x="-440" y="280" width="160" height="60" as="geometry" />
        </mxCell>
        <mxCell id="Vfjefu0ZY86SunLi3x9Y-7" value="Thêm mới sinh viên" style="rounded=0;whiteSpace=wrap;html=1;fontSize=17;" vertex="1" parent="1">
          <mxGeometry x="-400" y="400" width="160" height="60" as="geometry" />
        </mxCell>
        <mxCell id="Vfjefu0ZY86SunLi3x9Y-8" value="Quản lý lớp học" style="rounded=0;whiteSpace=wrap;html=1;fontSize=17;" vertex="1" parent="1">
          <mxGeometry x="-200" y="280" width="160" height="60" as="geometry" />
        </mxCell>
        <mxCell id="Vfjefu0ZY86SunLi3x9Y-9" value="Thêm lớp học" style="rounded=0;whiteSpace=wrap;html=1;fontSize=17;" vertex="1" parent="1">
          <mxGeometry x="-160" y="400" width="160" height="60" as="geometry" />
        </mxCell>
        <mxCell id="Vfjefu0ZY86SunLi3x9Y-10" value="Quản lý môn học" style="rounded=0;whiteSpace=wrap;html=1;fontSize=17;" vertex="1" parent="1">
          <mxGeometry x="40" y="280" width="160" height="60" as="geometry" />
        </mxCell>
        <mxCell id="Vfjefu0ZY86SunLi3x9Y-11" value="Thêm môn học" style="rounded=0;whiteSpace=wrap;html=1;fontSize=17;" vertex="1" parent="1">
          <mxGeometry x="80" y="400" width="160" height="60" as="geometry" />
        </mxCell>
        <mxCell id="Vfjefu0ZY86SunLi3x9Y-12" value="Quản lý lớp học phần" style="rounded=0;whiteSpace=wrap;html=1;fontSize=17;" vertex="1" parent="1">
          <mxGeometry x="280" y="280" width="160" height="60" as="geometry" />
        </mxCell>
        <mxCell id="Vfjefu0ZY86SunLi3x9Y-13" value="Tạo lớp học phần" style="rounded=0;whiteSpace=wrap;html=1;fontSize=17;" vertex="1" parent="1">
          <mxGeometry x="320" y="400" width="160" height="60" as="geometry" />
        </mxCell>
        <mxCell id="Vfjefu0ZY86SunLi3x9Y-14" value="Quản lý giảng viên" style="rounded=0;whiteSpace=wrap;html=1;fontSize=17;" vertex="1" parent="1">
          <mxGeometry x="520" y="280" width="160" height="60" as="geometry" />
        </mxCell>
        <mxCell id="Vfjefu0ZY86SunLi3x9Y-16" value="Thêm giảng viên" style="rounded=0;whiteSpace=wrap;html=1;fontSize=17;" vertex="1" parent="1">
          <mxGeometry x="560" y="400" width="160" height="60" as="geometry" />
        </mxCell>
        <mxCell id="Vfjefu0ZY86SunLi3x9Y-17" value="Quản lý khoa" style="rounded=0;whiteSpace=wrap;html=1;fontSize=17;" vertex="1" parent="1">
          <mxGeometry x="760" y="280" width="160" height="60" as="geometry" />
        </mxCell>
        <mxCell id="Vfjefu0ZY86SunLi3x9Y-18" value="Thêm khoa mới" style="rounded=0;whiteSpace=wrap;html=1;fontSize=17;" vertex="1" parent="1">
          <mxGeometry x="800" y="400" width="160" height="60" as="geometry" />
        </mxCell>
        <mxCell id="Vfjefu0ZY86SunLi3x9Y-19" value="Quản lý điểm" style="rounded=0;whiteSpace=wrap;html=1;fontSize=17;" vertex="1" parent="1">
          <mxGeometry x="1000" y="280" width="160" height="60" as="geometry" />
        </mxCell>
        <mxCell id="Vfjefu0ZY86SunLi3x9Y-20" value="Nhập điểm từ form thêm mới hoặc từ excel" style="rounded=0;whiteSpace=wrap;html=1;fontSize=17;" vertex="1" parent="1">
          <mxGeometry x="1040" y="400" width="180" height="80" as="geometry" />
        </mxCell>
        <mxCell id="Vfjefu0ZY86SunLi3x9Y-21" value="Báo cáo thống kê" style="rounded=0;whiteSpace=wrap;html=1;fontSize=17;" vertex="1" parent="1">
          <mxGeometry x="1240" y="280" width="160" height="60" as="geometry" />
        </mxCell>
        <mxCell id="Vfjefu0ZY86SunLi3x9Y-22" value="Thống kế tỉ lệ đầu vào/đầu ra sinh viên" style="rounded=0;whiteSpace=wrap;html=1;fontSize=17;" vertex="1" parent="1">
          <mxGeometry x="1280" y="400" width="160" height="60" as="geometry" />
        </mxCell>
        <mxCell id="Vfjefu0ZY86SunLi3x9Y-23" value="Quản lý tài khoản" style="rounded=0;whiteSpace=wrap;html=1;fontSize=17;" vertex="1" parent="1">
          <mxGeometry x="1480" y="280" width="160" height="60" as="geometry" />
        </mxCell>
        <mxCell id="Vfjefu0ZY86SunLi3x9Y-24" value="Thêm tài khoản" style="rounded=0;whiteSpace=wrap;html=1;fontSize=17;" vertex="1" parent="1">
          <mxGeometry x="1520" y="400" width="160" height="60" as="geometry" />
        </mxCell>
        <mxCell id="Vfjefu0ZY86SunLi3x9Y-25" value="" style="endArrow=none;html=1;rounded=0;fontSize=17;" edge="1" parent="1">
          <mxGeometry width="50" height="50" relative="1" as="geometry">
            <mxPoint x="460" y="240" as="sourcePoint" />
            <mxPoint x="460" y="197" as="targetPoint" />
          </mxGeometry>
        </mxCell>
        <mxCell id="Vfjefu0ZY86SunLi3x9Y-26" value="" style="endArrow=none;html=1;rounded=0;fontSize=17;" edge="1" parent="1">
          <mxGeometry width="50" height="50" relative="1" as="geometry">
            <mxPoint x="-600" y="240" as="sourcePoint" />
            <mxPoint x="1560" y="240" as="targetPoint" />
          </mxGeometry>
        </mxCell>
        <mxCell id="Vfjefu0ZY86SunLi3x9Y-27" value="" style="endArrow=none;html=1;rounded=0;exitX=0.5;exitY=0;exitDx=0;exitDy=0;fontSize=17;" edge="1" parent="1" source="Vfjefu0ZY86SunLi3x9Y-2">
          <mxGeometry width="50" height="50" relative="1" as="geometry">
            <mxPoint x="-290" y="280" as="sourcePoint" />
            <mxPoint x="-600" y="240" as="targetPoint" />
          </mxGeometry>
        </mxCell>
        <mxCell id="Vfjefu0ZY86SunLi3x9Y-28" value="" style="endArrow=none;html=1;rounded=0;entryX=0.125;entryY=1;entryDx=0;entryDy=0;entryPerimeter=0;fontSize=17;" edge="1" parent="1" target="Vfjefu0ZY86SunLi3x9Y-2">
          <mxGeometry width="50" height="50" relative="1" as="geometry">
            <mxPoint x="-660" y="550" as="sourcePoint" />
            <mxPoint x="-440" y="430" as="targetPoint" />
          </mxGeometry>
        </mxCell>
        <mxCell id="Vfjefu0ZY86SunLi3x9Y-29" value="" style="endArrow=none;html=1;rounded=0;entryX=0;entryY=0.5;entryDx=0;entryDy=0;fontSize=17;" edge="1" parent="1" target="Vfjefu0ZY86SunLi3x9Y-4">
          <mxGeometry width="50" height="50" relative="1" as="geometry">
            <mxPoint x="-660" y="430" as="sourcePoint" />
            <mxPoint x="-440" y="430" as="targetPoint" />
          </mxGeometry>
        </mxCell>
        <mxCell id="Vfjefu0ZY86SunLi3x9Y-30" value="" style="endArrow=none;html=1;rounded=0;entryX=0;entryY=0.5;entryDx=0;entryDy=0;fontSize=17;" edge="1" parent="1" target="Vfjefu0ZY86SunLi3x9Y-5">
          <mxGeometry width="50" height="50" relative="1" as="geometry">
            <mxPoint x="-660" y="550" as="sourcePoint" />
            <mxPoint x="-440" y="430" as="targetPoint" />
          </mxGeometry>
        </mxCell>
        <mxCell id="Vfjefu0ZY86SunLi3x9Y-31" value="Sửa thông tin sinh viên" style="rounded=0;whiteSpace=wrap;html=1;fontSize=17;" vertex="1" parent="1">
          <mxGeometry x="-400" y="520" width="160" height="60" as="geometry" />
        </mxCell>
        <mxCell id="Vfjefu0ZY86SunLi3x9Y-32" value="Xóa sinh viên" style="rounded=0;whiteSpace=wrap;html=1;fontSize=17;" vertex="1" parent="1">
          <mxGeometry x="-400" y="640" width="160" height="60" as="geometry" />
        </mxCell>
        <mxCell id="Vfjefu0ZY86SunLi3x9Y-33" value="Tìm kiếm và lọc sinh viên" style="rounded=0;whiteSpace=wrap;html=1;fontSize=17;" vertex="1" parent="1">
          <mxGeometry x="-400" y="760" width="160" height="60" as="geometry" />
        </mxCell>
        <mxCell id="Vfjefu0ZY86SunLi3x9Y-34" value="Nhập xuất sinh viên từ excel" style="rounded=0;whiteSpace=wrap;html=1;fontSize=17;" vertex="1" parent="1">
          <mxGeometry x="-400" y="880" width="160" height="60" as="geometry" />
        </mxCell>
        <mxCell id="Vfjefu0ZY86SunLi3x9Y-35" value="" style="endArrow=none;html=1;rounded=0;entryX=0.127;entryY=1.033;entryDx=0;entryDy=0;entryPerimeter=0;fontSize=17;" edge="1" parent="1" target="Vfjefu0ZY86SunLi3x9Y-6">
          <mxGeometry width="50" height="50" relative="1" as="geometry">
            <mxPoint x="-420" y="910" as="sourcePoint" />
            <mxPoint x="-440" y="430" as="targetPoint" />
          </mxGeometry>
        </mxCell>
        <mxCell id="Vfjefu0ZY86SunLi3x9Y-36" value="" style="endArrow=none;html=1;rounded=0;entryX=0;entryY=0.5;entryDx=0;entryDy=0;fontSize=17;" edge="1" parent="1" target="Vfjefu0ZY86SunLi3x9Y-34">
          <mxGeometry width="50" height="50" relative="1" as="geometry">
            <mxPoint x="-420" y="910" as="sourcePoint" />
            <mxPoint x="-440" y="830" as="targetPoint" />
          </mxGeometry>
        </mxCell>
        <mxCell id="Vfjefu0ZY86SunLi3x9Y-37" value="" style="endArrow=none;html=1;rounded=0;entryX=0;entryY=0.5;entryDx=0;entryDy=0;fontSize=17;" edge="1" parent="1" target="Vfjefu0ZY86SunLi3x9Y-33">
          <mxGeometry width="50" height="50" relative="1" as="geometry">
            <mxPoint x="-420" y="790" as="sourcePoint" />
            <mxPoint x="-440" y="830" as="targetPoint" />
          </mxGeometry>
        </mxCell>
        <mxCell id="Vfjefu0ZY86SunLi3x9Y-38" value="" style="endArrow=none;html=1;rounded=0;entryX=0;entryY=0.5;entryDx=0;entryDy=0;fontSize=17;" edge="1" parent="1" target="Vfjefu0ZY86SunLi3x9Y-32">
          <mxGeometry width="50" height="50" relative="1" as="geometry">
            <mxPoint x="-420" y="670" as="sourcePoint" />
            <mxPoint x="-440" y="730" as="targetPoint" />
          </mxGeometry>
        </mxCell>
        <mxCell id="Vfjefu0ZY86SunLi3x9Y-39" value="" style="endArrow=none;html=1;rounded=0;entryX=0;entryY=0.5;entryDx=0;entryDy=0;fontSize=17;" edge="1" parent="1" target="Vfjefu0ZY86SunLi3x9Y-31">
          <mxGeometry width="50" height="50" relative="1" as="geometry">
            <mxPoint x="-420" y="550" as="sourcePoint" />
            <mxPoint x="-440" y="430" as="targetPoint" />
          </mxGeometry>
        </mxCell>
        <mxCell id="Vfjefu0ZY86SunLi3x9Y-40" value="" style="endArrow=none;html=1;rounded=0;entryX=0;entryY=0.5;entryDx=0;entryDy=0;fontSize=17;" edge="1" parent="1" target="Vfjefu0ZY86SunLi3x9Y-7">
          <mxGeometry width="50" height="50" relative="1" as="geometry">
            <mxPoint x="-420" y="430" as="sourcePoint" />
            <mxPoint x="-440" y="430" as="targetPoint" />
          </mxGeometry>
        </mxCell>
        <mxCell id="Vfjefu0ZY86SunLi3x9Y-41" value="" style="endArrow=none;html=1;rounded=0;exitX=0.5;exitY=0;exitDx=0;exitDy=0;fontSize=17;" edge="1" parent="1" source="Vfjefu0ZY86SunLi3x9Y-6">
          <mxGeometry width="50" height="50" relative="1" as="geometry">
            <mxPoint x="-490" y="280" as="sourcePoint" />
            <mxPoint x="-360" y="240" as="targetPoint" />
          </mxGeometry>
        </mxCell>
        <mxCell id="Vfjefu0ZY86SunLi3x9Y-42" value="" style="endArrow=none;html=1;rounded=0;exitX=0.5;exitY=0;exitDx=0;exitDy=0;fontSize=17;" edge="1" parent="1" source="Vfjefu0ZY86SunLi3x9Y-8">
          <mxGeometry width="50" height="50" relative="1" as="geometry">
            <mxPoint x="-190" y="380" as="sourcePoint" />
            <mxPoint x="-120" y="240" as="targetPoint" />
          </mxGeometry>
        </mxCell>
        <mxCell id="Vfjefu0ZY86SunLi3x9Y-43" value="Sửa thông tin lớp học" style="rounded=0;whiteSpace=wrap;html=1;fontSize=17;" vertex="1" parent="1">
          <mxGeometry x="-160" y="520" width="160" height="60" as="geometry" />
        </mxCell>
        <mxCell id="Vfjefu0ZY86SunLi3x9Y-44" value="Xóa lớp học" style="rounded=0;whiteSpace=wrap;html=1;fontSize=17;" vertex="1" parent="1">
          <mxGeometry x="-160" y="640" width="160" height="60" as="geometry" />
        </mxCell>
        <mxCell id="Vfjefu0ZY86SunLi3x9Y-45" value="Tìm kiếm thông tin lớp học" style="rounded=0;whiteSpace=wrap;html=1;fontSize=17;" vertex="1" parent="1">
          <mxGeometry x="-160" y="760" width="160" height="60" as="geometry" />
        </mxCell>
        <mxCell id="Vfjefu0ZY86SunLi3x9Y-46" value="" style="endArrow=none;html=1;rounded=0;entryX=0.115;entryY=1.022;entryDx=0;entryDy=0;entryPerimeter=0;fontSize=17;" edge="1" parent="1" target="Vfjefu0ZY86SunLi3x9Y-8">
          <mxGeometry width="50" height="50" relative="1" as="geometry">
            <mxPoint x="-180" y="790" as="sourcePoint" />
            <mxPoint x="-240" y="430" as="targetPoint" />
          </mxGeometry>
        </mxCell>
        <mxCell id="Vfjefu0ZY86SunLi3x9Y-47" value="" style="endArrow=none;html=1;rounded=0;entryX=0;entryY=0.5;entryDx=0;entryDy=0;fontSize=17;" edge="1" parent="1" target="Vfjefu0ZY86SunLi3x9Y-45">
          <mxGeometry width="50" height="50" relative="1" as="geometry">
            <mxPoint x="-180" y="790" as="sourcePoint" />
            <mxPoint x="-240" y="630" as="targetPoint" />
          </mxGeometry>
        </mxCell>
        <mxCell id="Vfjefu0ZY86SunLi3x9Y-48" value="" style="endArrow=none;html=1;rounded=0;entryX=0;entryY=0.5;entryDx=0;entryDy=0;fontSize=17;" edge="1" parent="1" target="Vfjefu0ZY86SunLi3x9Y-44">
          <mxGeometry width="50" height="50" relative="1" as="geometry">
            <mxPoint x="-180" y="670" as="sourcePoint" />
            <mxPoint x="-240" y="630" as="targetPoint" />
          </mxGeometry>
        </mxCell>
        <mxCell id="Vfjefu0ZY86SunLi3x9Y-49" value="" style="endArrow=none;html=1;rounded=0;entryX=0;entryY=0.5;entryDx=0;entryDy=0;fontSize=17;" edge="1" parent="1" target="Vfjefu0ZY86SunLi3x9Y-43">
          <mxGeometry width="50" height="50" relative="1" as="geometry">
            <mxPoint x="-180" y="550" as="sourcePoint" />
            <mxPoint x="-240" y="630" as="targetPoint" />
          </mxGeometry>
        </mxCell>
        <mxCell id="Vfjefu0ZY86SunLi3x9Y-50" value="" style="endArrow=none;html=1;rounded=0;entryX=0;entryY=0.5;entryDx=0;entryDy=0;fontSize=17;" edge="1" parent="1">
          <mxGeometry width="50" height="50" relative="1" as="geometry">
            <mxPoint x="-181" y="430" as="sourcePoint" />
            <mxPoint x="-161" y="430" as="targetPoint" />
          </mxGeometry>
        </mxCell>
        <mxCell id="Vfjefu0ZY86SunLi3x9Y-51" value="Sửa môn học" style="rounded=0;whiteSpace=wrap;html=1;fontSize=17;" vertex="1" parent="1">
          <mxGeometry x="80" y="520" width="160" height="60" as="geometry" />
        </mxCell>
        <mxCell id="Vfjefu0ZY86SunLi3x9Y-52" value="Xóa môn học" style="rounded=0;whiteSpace=wrap;html=1;fontSize=17;" vertex="1" parent="1">
          <mxGeometry x="80" y="640" width="160" height="60" as="geometry" />
        </mxCell>
        <mxCell id="Vfjefu0ZY86SunLi3x9Y-53" value="Tìm kiếm môn học trên danh sách" style="rounded=0;whiteSpace=wrap;html=1;fontSize=17;" vertex="1" parent="1">
          <mxGeometry x="80" y="760" width="160" height="60" as="geometry" />
        </mxCell>
        <mxCell id="Vfjefu0ZY86SunLi3x9Y-54" value="" style="endArrow=none;html=1;rounded=0;exitX=0.5;exitY=0;exitDx=0;exitDy=0;fontSize=17;" edge="1" parent="1" source="Vfjefu0ZY86SunLi3x9Y-10">
          <mxGeometry width="50" height="50" relative="1" as="geometry">
            <mxPoint x="10" y="380" as="sourcePoint" />
            <mxPoint x="120" y="240" as="targetPoint" />
          </mxGeometry>
        </mxCell>
        <mxCell id="Vfjefu0ZY86SunLi3x9Y-55" value="" style="endArrow=none;html=1;rounded=0;entryX=0.127;entryY=1.067;entryDx=0;entryDy=0;entryPerimeter=0;fontSize=17;" edge="1" parent="1">
          <mxGeometry width="50" height="50" relative="1" as="geometry">
            <mxPoint x="60" y="790" as="sourcePoint" />
            <mxPoint x="60.319999999999936" y="340.02" as="targetPoint" />
          </mxGeometry>
        </mxCell>
        <mxCell id="Vfjefu0ZY86SunLi3x9Y-56" value="" style="endArrow=none;html=1;rounded=0;entryX=0;entryY=0.5;entryDx=0;entryDy=0;fontSize=17;" edge="1" parent="1" target="Vfjefu0ZY86SunLi3x9Y-53">
          <mxGeometry width="50" height="50" relative="1" as="geometry">
            <mxPoint x="60" y="790" as="sourcePoint" />
            <mxPoint x="60" y="820" as="targetPoint" />
          </mxGeometry>
        </mxCell>
        <mxCell id="Vfjefu0ZY86SunLi3x9Y-57" value="" style="endArrow=none;html=1;rounded=0;entryX=0;entryY=0.5;entryDx=0;entryDy=0;fontSize=17;" edge="1" parent="1" target="Vfjefu0ZY86SunLi3x9Y-52">
          <mxGeometry width="50" height="50" relative="1" as="geometry">
            <mxPoint x="60" y="670" as="sourcePoint" />
            <mxPoint x="60" y="720" as="targetPoint" />
          </mxGeometry>
        </mxCell>
        <mxCell id="Vfjefu0ZY86SunLi3x9Y-58" value="" style="endArrow=none;html=1;rounded=0;entryX=0;entryY=0.5;entryDx=0;entryDy=0;fontSize=17;" edge="1" parent="1" target="Vfjefu0ZY86SunLi3x9Y-51">
          <mxGeometry width="50" height="50" relative="1" as="geometry">
            <mxPoint x="60" y="550" as="sourcePoint" />
            <mxPoint x="60" y="520" as="targetPoint" />
          </mxGeometry>
        </mxCell>
        <mxCell id="Vfjefu0ZY86SunLi3x9Y-59" value="" style="endArrow=none;html=1;rounded=0;entryX=0;entryY=0.5;entryDx=0;entryDy=0;fontSize=17;" edge="1" parent="1" target="Vfjefu0ZY86SunLi3x9Y-11">
          <mxGeometry width="50" height="50" relative="1" as="geometry">
            <mxPoint x="60" y="430" as="sourcePoint" />
            <mxPoint x="60" y="320" as="targetPoint" />
          </mxGeometry>
        </mxCell>
        <mxCell id="Vfjefu0ZY86SunLi3x9Y-60" value="Thêm sinh viên vào lớp học phần" style="rounded=0;whiteSpace=wrap;html=1;fontSize=17;" vertex="1" parent="1">
          <mxGeometry x="320" y="520" width="160" height="60" as="geometry" />
        </mxCell>
        <mxCell id="Vfjefu0ZY86SunLi3x9Y-61" value="Cập nhật thông tin lớp học phần" style="rounded=0;whiteSpace=wrap;html=1;fontSize=17;" vertex="1" parent="1">
          <mxGeometry x="320" y="640" width="160" height="60" as="geometry" />
        </mxCell>
        <mxCell id="Vfjefu0ZY86SunLi3x9Y-62" value="Xóa lớp học phần" style="rounded=0;whiteSpace=wrap;html=1;fontSize=17;" vertex="1" parent="1">
          <mxGeometry x="320" y="760" width="160" height="60" as="geometry" />
        </mxCell>
        <mxCell id="Vfjefu0ZY86SunLi3x9Y-63" value="Tìm kiếm thông tin lớp học phần" style="rounded=0;whiteSpace=wrap;html=1;fontSize=17;" vertex="1" parent="1">
          <mxGeometry x="320" y="880" width="160" height="60" as="geometry" />
        </mxCell>
        <mxCell id="Vfjefu0ZY86SunLi3x9Y-64" value="" style="endArrow=none;html=1;rounded=0;entryX=0.115;entryY=1.022;entryDx=0;entryDy=0;entryPerimeter=0;fontSize=17;" edge="1" parent="1">
          <mxGeometry width="50" height="50" relative="1" as="geometry">
            <mxPoint x="298" y="910" as="sourcePoint" />
            <mxPoint x="298.4000000000001" y="340.32000000000005" as="targetPoint" />
          </mxGeometry>
        </mxCell>
        <mxCell id="Vfjefu0ZY86SunLi3x9Y-65" value="" style="endArrow=none;html=1;rounded=0;entryX=0;entryY=0.5;entryDx=0;entryDy=0;fontSize=17;" edge="1" parent="1" target="Vfjefu0ZY86SunLi3x9Y-63">
          <mxGeometry width="50" height="50" relative="1" as="geometry">
            <mxPoint x="298" y="910" as="sourcePoint" />
            <mxPoint x="318" y="910" as="targetPoint" />
          </mxGeometry>
        </mxCell>
        <mxCell id="Vfjefu0ZY86SunLi3x9Y-66" value="" style="endArrow=none;html=1;rounded=0;entryX=0;entryY=0.5;entryDx=0;entryDy=0;fontSize=17;" edge="1" parent="1" target="Vfjefu0ZY86SunLi3x9Y-62">
          <mxGeometry width="50" height="50" relative="1" as="geometry">
            <mxPoint x="298" y="790" as="sourcePoint" />
            <mxPoint x="318" y="790" as="targetPoint" />
          </mxGeometry>
        </mxCell>
        <mxCell id="Vfjefu0ZY86SunLi3x9Y-67" value="" style="endArrow=none;html=1;rounded=0;entryX=0;entryY=0.5;entryDx=0;entryDy=0;fontSize=17;" edge="1" parent="1" target="Vfjefu0ZY86SunLi3x9Y-61">
          <mxGeometry width="50" height="50" relative="1" as="geometry">
            <mxPoint x="298" y="670" as="sourcePoint" />
            <mxPoint x="318" y="670" as="targetPoint" />
          </mxGeometry>
        </mxCell>
        <mxCell id="Vfjefu0ZY86SunLi3x9Y-68" value="" style="endArrow=none;html=1;rounded=0;fontSize=17;" edge="1" parent="1">
          <mxGeometry width="50" height="50" relative="1" as="geometry">
            <mxPoint x="298" y="550" as="sourcePoint" />
            <mxPoint x="320" y="550" as="targetPoint" />
          </mxGeometry>
        </mxCell>
        <mxCell id="Vfjefu0ZY86SunLi3x9Y-69" value="" style="endArrow=none;html=1;rounded=0;entryX=0;entryY=0.5;entryDx=0;entryDy=0;fontSize=17;" edge="1" parent="1">
          <mxGeometry width="50" height="50" relative="1" as="geometry">
            <mxPoint x="299" y="430" as="sourcePoint" />
            <mxPoint x="319" y="430" as="targetPoint" />
          </mxGeometry>
        </mxCell>
        <mxCell id="Vfjefu0ZY86SunLi3x9Y-70" value="" style="endArrow=none;html=1;rounded=0;exitX=0.5;exitY=0;exitDx=0;exitDy=0;fontSize=17;" edge="1" parent="1" source="Vfjefu0ZY86SunLi3x9Y-12">
          <mxGeometry width="50" height="50" relative="1" as="geometry">
            <mxPoint x="480" y="370" as="sourcePoint" />
            <mxPoint x="360" y="240" as="targetPoint" />
          </mxGeometry>
        </mxCell>
        <mxCell id="Vfjefu0ZY86SunLi3x9Y-71" value="" style="endArrow=none;html=1;rounded=0;fontSize=17;" edge="1" parent="1" source="Vfjefu0ZY86SunLi3x9Y-14">
          <mxGeometry width="50" height="50" relative="1" as="geometry">
            <mxPoint x="480" y="370" as="sourcePoint" />
            <mxPoint x="600" y="240" as="targetPoint" />
          </mxGeometry>
        </mxCell>
        <mxCell id="Vfjefu0ZY86SunLi3x9Y-72" value="" style="endArrow=none;html=1;rounded=0;exitX=0.5;exitY=0;exitDx=0;exitDy=0;fontSize=17;" edge="1" parent="1" source="Vfjefu0ZY86SunLi3x9Y-17">
          <mxGeometry width="50" height="50" relative="1" as="geometry">
            <mxPoint x="480" y="370" as="sourcePoint" />
            <mxPoint x="840" y="240" as="targetPoint" />
          </mxGeometry>
        </mxCell>
        <mxCell id="Vfjefu0ZY86SunLi3x9Y-73" value="" style="endArrow=none;html=1;rounded=0;exitX=0.5;exitY=0;exitDx=0;exitDy=0;fontSize=17;" edge="1" parent="1" source="Vfjefu0ZY86SunLi3x9Y-19">
          <mxGeometry width="50" height="50" relative="1" as="geometry">
            <mxPoint x="1080" y="370" as="sourcePoint" />
            <mxPoint x="1080" y="240" as="targetPoint" />
          </mxGeometry>
        </mxCell>
        <mxCell id="Vfjefu0ZY86SunLi3x9Y-74" value="" style="endArrow=none;html=1;rounded=0;exitX=0.5;exitY=0;exitDx=0;exitDy=0;fontSize=17;" edge="1" parent="1" source="Vfjefu0ZY86SunLi3x9Y-21">
          <mxGeometry width="50" height="50" relative="1" as="geometry">
            <mxPoint x="1280" y="370" as="sourcePoint" />
            <mxPoint x="1320" y="240" as="targetPoint" />
          </mxGeometry>
        </mxCell>
        <mxCell id="Vfjefu0ZY86SunLi3x9Y-75" value="" style="endArrow=none;html=1;rounded=0;exitX=0.5;exitY=0;exitDx=0;exitDy=0;fontSize=17;" edge="1" parent="1" source="Vfjefu0ZY86SunLi3x9Y-23">
          <mxGeometry width="50" height="50" relative="1" as="geometry">
            <mxPoint x="1480" y="370" as="sourcePoint" />
            <mxPoint x="1560" y="240" as="targetPoint" />
          </mxGeometry>
        </mxCell>
        <mxCell id="Vfjefu0ZY86SunLi3x9Y-76" value="Cập nhật thông tin giảng viên" style="rounded=0;whiteSpace=wrap;html=1;fontSize=17;" vertex="1" parent="1">
          <mxGeometry x="560" y="520" width="160" height="60" as="geometry" />
        </mxCell>
        <mxCell id="Vfjefu0ZY86SunLi3x9Y-77" value="Xóa giảng viên" style="rounded=0;whiteSpace=wrap;html=1;fontSize=17;" vertex="1" parent="1">
          <mxGeometry x="560" y="640" width="160" height="60" as="geometry" />
        </mxCell>
        <mxCell id="Vfjefu0ZY86SunLi3x9Y-78" value="Nhập xuất giảng viên từ excel" style="rounded=0;whiteSpace=wrap;html=1;fontSize=17;" vertex="1" parent="1">
          <mxGeometry x="560" y="760" width="160" height="60" as="geometry" />
        </mxCell>
        <mxCell id="Vfjefu0ZY86SunLi3x9Y-79" value="Tìm kiếm và lọc thông tin giảng viên" style="rounded=0;whiteSpace=wrap;html=1;fontSize=17;" vertex="1" parent="1">
          <mxGeometry x="560" y="880" width="160" height="60" as="geometry" />
        </mxCell>
        <mxCell id="Vfjefu0ZY86SunLi3x9Y-80" value="" style="endArrow=none;html=1;rounded=0;entryX=0.106;entryY=1;entryDx=0;entryDy=0;entryPerimeter=0;fontSize=17;" edge="1" parent="1" target="Vfjefu0ZY86SunLi3x9Y-14">
          <mxGeometry width="50" height="50" relative="1" as="geometry">
            <mxPoint x="540" y="910" as="sourcePoint" />
            <mxPoint x="630" y="620" as="targetPoint" />
          </mxGeometry>
        </mxCell>
        <mxCell id="Vfjefu0ZY86SunLi3x9Y-81" value="" style="endArrow=none;html=1;rounded=0;entryX=0;entryY=0.5;entryDx=0;entryDy=0;fontSize=17;" edge="1" parent="1" target="Vfjefu0ZY86SunLi3x9Y-79">
          <mxGeometry width="50" height="50" relative="1" as="geometry">
            <mxPoint x="540" y="910" as="sourcePoint" />
            <mxPoint x="630" y="720" as="targetPoint" />
          </mxGeometry>
        </mxCell>
        <mxCell id="Vfjefu0ZY86SunLi3x9Y-82" value="" style="endArrow=none;html=1;rounded=0;entryX=0;entryY=0.5;entryDx=0;entryDy=0;fontSize=17;" edge="1" parent="1" target="Vfjefu0ZY86SunLi3x9Y-78">
          <mxGeometry width="50" height="50" relative="1" as="geometry">
            <mxPoint x="540" y="790" as="sourcePoint" />
            <mxPoint x="630" y="720" as="targetPoint" />
          </mxGeometry>
        </mxCell>
        <mxCell id="Vfjefu0ZY86SunLi3x9Y-83" value="" style="endArrow=none;html=1;rounded=0;entryX=0;entryY=0.5;entryDx=0;entryDy=0;fontSize=17;" edge="1" parent="1">
          <mxGeometry width="50" height="50" relative="1" as="geometry">
            <mxPoint x="539" y="670" as="sourcePoint" />
            <mxPoint x="559" y="670" as="targetPoint" />
          </mxGeometry>
        </mxCell>
        <mxCell id="Vfjefu0ZY86SunLi3x9Y-84" value="" style="endArrow=none;html=1;rounded=0;fontSize=17;" edge="1" parent="1">
          <mxGeometry width="50" height="50" relative="1" as="geometry">
            <mxPoint x="538" y="550" as="sourcePoint" />
            <mxPoint x="560" y="550" as="targetPoint" />
          </mxGeometry>
        </mxCell>
        <mxCell id="Vfjefu0ZY86SunLi3x9Y-86" value="" style="endArrow=none;html=1;rounded=0;fontSize=17;" edge="1" parent="1">
          <mxGeometry width="50" height="50" relative="1" as="geometry">
            <mxPoint x="538" y="430" as="sourcePoint" />
            <mxPoint x="560" y="430" as="targetPoint" />
          </mxGeometry>
        </mxCell>
        <mxCell id="Vfjefu0ZY86SunLi3x9Y-87" value="Sửa thông tin khoa" style="rounded=0;whiteSpace=wrap;html=1;fontSize=17;" vertex="1" parent="1">
          <mxGeometry x="800" y="520" width="160" height="60" as="geometry" />
        </mxCell>
        <mxCell id="Vfjefu0ZY86SunLi3x9Y-88" value="Xóa khoa" style="rounded=0;whiteSpace=wrap;html=1;fontSize=17;" vertex="1" parent="1">
          <mxGeometry x="800" y="640" width="160" height="60" as="geometry" />
        </mxCell>
        <mxCell id="Vfjefu0ZY86SunLi3x9Y-89" value="Tìm kiếm thông tin khoa" style="rounded=0;whiteSpace=wrap;html=1;fontSize=17;" vertex="1" parent="1">
          <mxGeometry x="800" y="760" width="160" height="60" as="geometry" />
        </mxCell>
        <mxCell id="Vfjefu0ZY86SunLi3x9Y-90" value="" style="endArrow=none;html=1;rounded=0;entryX=0.116;entryY=1.028;entryDx=0;entryDy=0;entryPerimeter=0;fontSize=17;" edge="1" parent="1" target="Vfjefu0ZY86SunLi3x9Y-17">
          <mxGeometry width="50" height="50" relative="1" as="geometry">
            <mxPoint x="779" y="790" as="sourcePoint" />
            <mxPoint x="1060" y="600" as="targetPoint" />
          </mxGeometry>
        </mxCell>
        <mxCell id="Vfjefu0ZY86SunLi3x9Y-91" value="" style="endArrow=none;html=1;rounded=0;entryX=0;entryY=0.5;entryDx=0;entryDy=0;fontSize=17;" edge="1" parent="1" target="Vfjefu0ZY86SunLi3x9Y-89">
          <mxGeometry width="50" height="50" relative="1" as="geometry">
            <mxPoint x="780" y="790" as="sourcePoint" />
            <mxPoint x="1060" y="720" as="targetPoint" />
          </mxGeometry>
        </mxCell>
        <mxCell id="Vfjefu0ZY86SunLi3x9Y-92" value="" style="endArrow=none;html=1;rounded=0;entryX=0;entryY=0.5;entryDx=0;entryDy=0;fontSize=17;" edge="1" parent="1" target="Vfjefu0ZY86SunLi3x9Y-88">
          <mxGeometry width="50" height="50" relative="1" as="geometry">
            <mxPoint x="780" y="670" as="sourcePoint" />
            <mxPoint x="1060" y="600" as="targetPoint" />
          </mxGeometry>
        </mxCell>
        <mxCell id="Vfjefu0ZY86SunLi3x9Y-93" value="" style="endArrow=none;html=1;rounded=0;entryX=0;entryY=0.5;entryDx=0;entryDy=0;fontSize=17;" edge="1" parent="1" target="Vfjefu0ZY86SunLi3x9Y-87">
          <mxGeometry width="50" height="50" relative="1" as="geometry">
            <mxPoint x="780" y="550" as="sourcePoint" />
            <mxPoint x="1060" y="480" as="targetPoint" />
          </mxGeometry>
        </mxCell>
        <mxCell id="Vfjefu0ZY86SunLi3x9Y-94" value="" style="endArrow=none;html=1;rounded=0;entryX=0;entryY=0.5;entryDx=0;entryDy=0;fontSize=17;" edge="1" parent="1" target="Vfjefu0ZY86SunLi3x9Y-18">
          <mxGeometry width="50" height="50" relative="1" as="geometry">
            <mxPoint x="780" y="430" as="sourcePoint" />
            <mxPoint x="1060" y="480" as="targetPoint" />
          </mxGeometry>
        </mxCell>
        <mxCell id="Vfjefu0ZY86SunLi3x9Y-97" value="Sửa điểm" style="rounded=0;whiteSpace=wrap;html=1;fontSize=17;" vertex="1" parent="1">
          <mxGeometry x="1040" y="520" width="160" height="60" as="geometry" />
        </mxCell>
        <mxCell id="Vfjefu0ZY86SunLi3x9Y-98" value="Tính điểm và xếp loại" style="rounded=0;whiteSpace=wrap;html=1;fontSize=17;" vertex="1" parent="1">
          <mxGeometry x="1040" y="640" width="160" height="60" as="geometry" />
        </mxCell>
        <mxCell id="Vfjefu0ZY86SunLi3x9Y-99" value="Xóa điểm" style="rounded=0;whiteSpace=wrap;html=1;fontSize=17;" vertex="1" parent="1">
          <mxGeometry x="1040" y="760" width="160" height="60" as="geometry" />
        </mxCell>
        <mxCell id="Vfjefu0ZY86SunLi3x9Y-100" value="Tìm kiếm và lọc điểm" style="rounded=0;whiteSpace=wrap;html=1;fontSize=17;" vertex="1" parent="1">
          <mxGeometry x="1040" y="880" width="160" height="60" as="geometry" />
        </mxCell>
        <mxCell id="Vfjefu0ZY86SunLi3x9Y-101" value="" style="endArrow=none;html=1;rounded=0;entryX=0.116;entryY=1.041;entryDx=0;entryDy=0;entryPerimeter=0;fontSize=17;" edge="1" parent="1">
          <mxGeometry width="50" height="50" relative="1" as="geometry">
            <mxPoint x="1019" y="908.7843376608456" as="sourcePoint" />
            <mxPoint x="1018.56" y="340.46000000000004" as="targetPoint" />
          </mxGeometry>
        </mxCell>
        <mxCell id="Vfjefu0ZY86SunLi3x9Y-102" value="" style="endArrow=none;html=1;rounded=0;entryX=0;entryY=0.5;entryDx=0;entryDy=0;fontSize=17;" edge="1" parent="1">
          <mxGeometry width="50" height="50" relative="1" as="geometry">
            <mxPoint x="1019" y="430" as="sourcePoint" />
            <mxPoint x="1039" y="430" as="targetPoint" />
          </mxGeometry>
        </mxCell>
        <mxCell id="Vfjefu0ZY86SunLi3x9Y-103" value="" style="endArrow=none;html=1;rounded=0;entryX=0;entryY=0.5;entryDx=0;entryDy=0;fontSize=17;" edge="1" parent="1" target="Vfjefu0ZY86SunLi3x9Y-97">
          <mxGeometry width="50" height="50" relative="1" as="geometry">
            <mxPoint x="1020" y="550" as="sourcePoint" />
            <mxPoint x="1060" y="590" as="targetPoint" />
          </mxGeometry>
        </mxCell>
        <mxCell id="Vfjefu0ZY86SunLi3x9Y-104" value="" style="endArrow=none;html=1;rounded=0;entryX=0;entryY=0.5;entryDx=0;entryDy=0;fontSize=17;" edge="1" parent="1" target="Vfjefu0ZY86SunLi3x9Y-98">
          <mxGeometry width="50" height="50" relative="1" as="geometry">
            <mxPoint x="1020" y="670" as="sourcePoint" />
            <mxPoint x="1060" y="710" as="targetPoint" />
          </mxGeometry>
        </mxCell>
        <mxCell id="Vfjefu0ZY86SunLi3x9Y-105" value="" style="endArrow=none;html=1;rounded=0;entryX=0;entryY=0.5;entryDx=0;entryDy=0;fontSize=17;" edge="1" parent="1" target="Vfjefu0ZY86SunLi3x9Y-99">
          <mxGeometry width="50" height="50" relative="1" as="geometry">
            <mxPoint x="1020" y="790" as="sourcePoint" />
            <mxPoint x="1060" y="830" as="targetPoint" />
          </mxGeometry>
        </mxCell>
        <mxCell id="Vfjefu0ZY86SunLi3x9Y-106" value="" style="endArrow=none;html=1;rounded=0;entryX=0;entryY=0.5;entryDx=0;entryDy=0;fontSize=17;" edge="1" parent="1">
          <mxGeometry width="50" height="50" relative="1" as="geometry">
            <mxPoint x="1019" y="909" as="sourcePoint" />
            <mxPoint x="1039" y="909" as="targetPoint" />
          </mxGeometry>
        </mxCell>
        <mxCell id="Vfjefu0ZY86SunLi3x9Y-107" value="Thống kê điểm trung bình sinh viên theo lớp" style="rounded=0;whiteSpace=wrap;html=1;fontSize=17;" vertex="1" parent="1">
          <mxGeometry x="1280" y="520" width="180" height="80" as="geometry" />
        </mxCell>
        <mxCell id="Vfjefu0ZY86SunLi3x9Y-108" value="" style="endArrow=none;html=1;rounded=0;entryX=0.102;entryY=1.015;entryDx=0;entryDy=0;entryPerimeter=0;fontSize=17;" edge="1" parent="1" target="Vfjefu0ZY86SunLi3x9Y-21">
          <mxGeometry width="50" height="50" relative="1" as="geometry">
            <mxPoint x="1260" y="560" as="sourcePoint" />
            <mxPoint x="1280" y="490" as="targetPoint" />
          </mxGeometry>
        </mxCell>
        <mxCell id="Vfjefu0ZY86SunLi3x9Y-109" value="" style="endArrow=none;html=1;rounded=0;entryX=0;entryY=0.5;entryDx=0;entryDy=0;fontSize=17;" edge="1" parent="1" target="Vfjefu0ZY86SunLi3x9Y-107">
          <mxGeometry width="50" height="50" relative="1" as="geometry">
            <mxPoint x="1260" y="560" as="sourcePoint" />
            <mxPoint x="1280" y="490" as="targetPoint" />
          </mxGeometry>
        </mxCell>
        <mxCell id="Vfjefu0ZY86SunLi3x9Y-110" value="" style="endArrow=none;html=1;rounded=0;entryX=0;entryY=0.5;entryDx=0;entryDy=0;fontSize=17;" edge="1" parent="1" target="Vfjefu0ZY86SunLi3x9Y-22">
          <mxGeometry width="50" height="50" relative="1" as="geometry">
            <mxPoint x="1258" y="430" as="sourcePoint" />
            <mxPoint x="1278" y="430" as="targetPoint" />
          </mxGeometry>
        </mxCell>
        <mxCell id="Vfjefu0ZY86SunLi3x9Y-111" value="Sửa tài khoản" style="rounded=0;whiteSpace=wrap;html=1;fontSize=17;" vertex="1" parent="1">
          <mxGeometry x="1520" y="520" width="160" height="60" as="geometry" />
        </mxCell>
        <mxCell id="Vfjefu0ZY86SunLi3x9Y-112" value="Xóa tài khoản" style="rounded=0;whiteSpace=wrap;html=1;fontSize=17;" vertex="1" parent="1">
          <mxGeometry x="1520" y="640" width="160" height="60" as="geometry" />
        </mxCell>
        <mxCell id="Vfjefu0ZY86SunLi3x9Y-113" value="Tìm kiếm tài khoản" style="rounded=0;whiteSpace=wrap;html=1;fontSize=17;" vertex="1" parent="1">
          <mxGeometry x="1520" y="760" width="160" height="60" as="geometry" />
        </mxCell>
        <mxCell id="Vfjefu0ZY86SunLi3x9Y-114" value="" style="endArrow=none;html=1;rounded=0;entryX=0.106;entryY=1.067;entryDx=0;entryDy=0;entryPerimeter=0;fontSize=17;" edge="1" parent="1">
          <mxGeometry width="50" height="50" relative="1" as="geometry">
            <mxPoint x="1500" y="790" as="sourcePoint" />
            <mxPoint x="1496.96" y="340.0200000000001" as="targetPoint" />
          </mxGeometry>
        </mxCell>
        <mxCell id="Vfjefu0ZY86SunLi3x9Y-115" value="" style="endArrow=none;html=1;rounded=0;entryX=0;entryY=0.5;entryDx=0;entryDy=0;fontSize=17;" edge="1" parent="1" target="Vfjefu0ZY86SunLi3x9Y-113">
          <mxGeometry width="50" height="50" relative="1" as="geometry">
            <mxPoint x="1500" y="790" as="sourcePoint" />
            <mxPoint x="1520" y="830" as="targetPoint" />
          </mxGeometry>
        </mxCell>
        <mxCell id="Vfjefu0ZY86SunLi3x9Y-116" value="" style="endArrow=none;html=1;rounded=0;entryX=0;entryY=0.5;entryDx=0;entryDy=0;fontSize=17;" edge="1" parent="1" target="Vfjefu0ZY86SunLi3x9Y-112">
          <mxGeometry width="50" height="50" relative="1" as="geometry">
            <mxPoint x="1500" y="670" as="sourcePoint" />
            <mxPoint x="1520" y="710" as="targetPoint" />
          </mxGeometry>
        </mxCell>
        <mxCell id="Vfjefu0ZY86SunLi3x9Y-117" value="" style="endArrow=none;html=1;rounded=0;entryX=0;entryY=0.5;entryDx=0;entryDy=0;fontSize=17;" edge="1" parent="1">
          <mxGeometry width="50" height="50" relative="1" as="geometry">
            <mxPoint x="1499" y="550" as="sourcePoint" />
            <mxPoint x="1519" y="550" as="targetPoint" />
          </mxGeometry>
        </mxCell>
        <mxCell id="Vfjefu0ZY86SunLi3x9Y-118" value="" style="endArrow=none;html=1;rounded=0;fontSize=17;" edge="1" parent="1">
          <mxGeometry width="50" height="50" relative="1" as="geometry">
            <mxPoint x="1498" y="430" as="sourcePoint" />
            <mxPoint x="1520" y="430" as="targetPoint" />
          </mxGeometry>
        </mxCell>
      </root>
    </mxGraphModel>
  </diagram>
</mxfile>
